<svg width="64" height="64" viewBox="0 0 64 64" fill="none" xmlns="http://www.w3.org/2000/svg">
<rect width="64" height="64" rx="32" fill="#F34E1B" fill-opacity="0.1"/>
<path d="M30.6667 38.6667L33.3334 41.3334C33.5961 41.596 33.9079 41.8044 34.251 41.9465C34.5942 42.0886 34.962 42.1618 35.3334 42.1618C35.7048 42.1618 36.0726 42.0886 36.4158 41.9465C36.759 41.8044 37.0708 41.596 37.3334 41.3334C37.5961 41.0707 37.8044 40.7589 37.9465 40.4158C38.0887 40.0726 38.1618 39.7048 38.1618 39.3334C38.1618 38.9619 38.0887 38.5941 37.9465 38.251C37.8044 37.9078 37.5961 37.596 37.3334 37.3334" stroke="#F34E1B" stroke-width="2.66667" stroke-linecap="round" stroke-linejoin="round"/>
<path d="M34.6667 34.6666L38.0001 37.9999C38.5305 38.5304 39.2499 38.8284 40.0001 38.8284C40.7502 38.8284 41.4696 38.5304 42.0001 37.9999C42.5305 37.4695 42.8285 36.7501 42.8285 35.9999C42.8285 35.2498 42.5305 34.5304 42.0001 33.9999L36.8267 28.8266C36.0767 28.0775 35.0601 27.6568 34.0001 27.6568C32.9401 27.6568 31.9234 28.0775 31.1734 28.8266L30.0001 29.9999C29.4696 30.5304 28.7502 30.8284 28.0001 30.8284C27.2499 30.8284 26.5305 30.5304 26.0001 29.9999C25.4696 29.4695 25.1716 28.7501 25.1716 27.9999C25.1716 27.2498 25.4696 26.5304 26.0001 25.9999L29.7467 22.2533C30.963 21.0401 32.5493 20.2673 34.2542 20.0572C35.9592 19.8471 37.6856 20.2117 39.1601 21.0933L39.7867 21.4666C40.3544 21.8093 41.0295 21.9281 41.6801 21.7999L44.0001 21.3333" stroke="#F34E1B" stroke-width="2.66667" stroke-linecap="round" stroke-linejoin="round"/>
<path d="M44.0001 20L45.3334 34.6667H42.6667" stroke="#F34E1B" stroke-width="2.66667" stroke-linecap="round" stroke-linejoin="round"/>
<path d="M20.0001 20L18.6667 34.6667L27.3334 43.3333C27.8638 43.8638 28.5833 44.1618 29.3334 44.1618C30.0836 44.1618 30.803 43.8638 31.3334 43.3333C31.8638 42.8029 32.1618 42.0835 32.1618 41.3333C32.1618 40.5832 31.8638 39.8638 31.3334 39.3333" stroke="#F34E1B" stroke-width="2.66667" stroke-linecap="round" stroke-linejoin="round"/>
<path d="M20 21.3334H30.6667" stroke="#F34E1B" stroke-width="2.66667" stroke-linecap="round" stroke-linejoin="round"/>
</svg>
