<svg width="32" height="42" viewBox="0 0 32 42" fill="none" xmlns="http://www.w3.org/2000/svg">
<path d="M8.66666 24.6667C9.99275 24.6667 11.2645 24.14 12.2022 23.2023C13.1399 22.2646 13.6667 20.9928 13.6667 19.6667C13.6667 16.9067 12.6667 15.6667 11.6667 13.6667C9.52266 9.38075 11.2187 5.55875 15.6667 1.66675C16.6667 6.66675 19.6667 11.4667 23.6667 14.6667C27.6667 17.8667 29.6667 21.6667 29.6667 25.6667C29.6667 27.5053 29.3045 29.3258 28.601 31.0243C27.8974 32.7229 26.8662 34.2662 25.5662 35.5662C24.2661 36.8663 22.7228 37.8975 21.0242 38.6011C19.3257 39.3046 17.5052 39.6667 15.6667 39.6667C13.8282 39.6667 12.0077 39.3046 10.3091 38.6011C8.61054 37.8975 7.06719 36.8663 5.76717 35.5662C4.46715 34.2662 3.43592 32.7229 2.73235 31.0243C2.02878 29.3258 1.66666 27.5053 1.66666 25.6667C1.66666 23.3607 2.53266 21.0787 3.66666 19.6667C3.66666 20.9928 4.19345 22.2646 5.13113 23.2023C6.06881 24.14 7.34058 24.6667 8.66666 24.6667Z" stroke="#F34E1B" stroke-width="3.33333" stroke-linecap="round" stroke-linejoin="round"/>
</svg>
