<svg width="48" height="48" viewBox="0 0 48 48" fill="none" xmlns="http://www.w3.org/2000/svg">
<rect width="48" height="48" rx="24" fill="#F34E1B" fill-opacity="0.1"/>
<path d="M28 15C27.4696 15 26.9609 15.2107 26.5858 15.5858C26.2107 15.9609 26 16.4696 26 17V23C26 23.5304 26.2107 24.0391 26.5858 24.4142C26.9609 24.7893 27.4696 25 28 25C28.2652 25 28.5196 25.1054 28.7071 25.2929C28.8946 25.4804 29 25.7348 29 26V27C29 27.5304 28.7893 28.0391 28.4142 28.4142C28.0391 28.7893 27.5304 29 27 29C26.7348 29 26.4804 29.1054 26.2929 29.2929C26.1054 29.4804 26 29.7348 26 30V32C26 32.2652 26.1054 32.5196 26.2929 32.7071C26.4804 32.8946 26.7348 33 27 33C28.5913 33 30.1174 32.3679 31.2426 31.2426C32.3679 30.1174 33 28.5913 33 27V17C33 16.4696 32.7893 15.9609 32.4142 15.5858C32.0391 15.2107 31.5304 15 31 15H28Z" stroke="#F34E1B" stroke-width="2" stroke-linecap="round" stroke-linejoin="round"/>
<path d="M17 15C16.4696 15 15.9609 15.2107 15.5858 15.5858C15.2107 15.9609 15 16.4696 15 17V23C15 23.5304 15.2107 24.0391 15.5858 24.4142C15.9609 24.7893 16.4696 25 17 25C17.2652 25 17.5196 25.1054 17.7071 25.2929C17.8946 25.4804 18 25.7348 18 26V27C18 27.5304 17.7893 28.0391 17.4142 28.4142C17.0391 28.7893 16.5304 29 16 29C15.7348 29 15.4804 29.1054 15.2929 29.2929C15.1054 29.4804 15 29.7348 15 30V32C15 32.2652 15.1054 32.5196 15.2929 32.7071C15.4804 32.8946 15.7348 33 16 33C17.5913 33 19.1174 32.3679 20.2426 31.2426C21.3679 30.1174 22 28.5913 22 27V17C22 16.4696 21.7893 15.9609 21.4142 15.5858C21.0391 15.2107 20.5304 15 20 15H17Z" stroke="#F34E1B" stroke-width="2" stroke-linecap="round" stroke-linejoin="round"/>
</svg>
