<svg width="80" height="80" viewBox="0 0 80 80" fill="none" xmlns="http://www.w3.org/2000/svg">
<rect width="80" height="80" rx="40" fill="#F1F5F9"/>
<path d="M46.6666 55V51.6667C46.6666 49.8986 45.9642 48.2029 44.714 46.9526C43.4637 45.7024 41.768 45 39.9999 45H29.9999C28.2318 45 26.5361 45.7024 25.2859 46.9526C24.0356 48.2029 23.3333 49.8986 23.3333 51.6667V55" stroke="#668099" stroke-width="3.33333" stroke-linecap="round" stroke-linejoin="round"/>
<path d="M34.9999 38.3333C38.6818 38.3333 41.6666 35.3486 41.6666 31.6667C41.6666 27.9848 38.6818 25 34.9999 25C31.318 25 28.3333 27.9848 28.3333 31.6667C28.3333 35.3486 31.318 38.3333 34.9999 38.3333Z" stroke="#668099" stroke-width="3.33333" stroke-linecap="round" stroke-linejoin="round"/>
<path d="M56.6667 55V51.6667C56.6656 50.1896 56.174 48.7546 55.269 47.5872C54.364 46.4198 53.097 45.586 51.6667 45.2167" stroke="#668099" stroke-width="3.33333" stroke-linecap="round" stroke-linejoin="round"/>
<path d="M46.6667 25.2167C48.1008 25.5838 49.3718 26.4178 50.2795 27.5872C51.1871 28.7565 51.6798 30.1947 51.6798 31.675C51.6798 33.1553 51.1871 34.5935 50.2795 35.7628C49.3718 36.9322 48.1008 37.7662 46.6667 38.1333" stroke="#668099" stroke-width="3.33333" stroke-linecap="round" stroke-linejoin="round"/>
</svg>
